<?xml version="1.0" encoding="utf-8"?>
<!-- Generator: Adobe Illustrator 22.0.0, SVG Export Plug-In . SVG Version: 6.00 Build 0)  -->
<svg version="1.1" xmlns="http://www.w3.org/2000/svg" xmlns:xlink="http://www.w3.org/1999/xlink" x="0px" y="0px"
	 viewBox="0 0 256 256" style="enable-background:new 0 0 256 256;" xml:space="preserve">
<style type="text/css">
	.st0{display:none;}
	.st1{display:inline;}
	.st2{fill:none;stroke:#6B1D1D;stroke-width:0.5;stroke-miterlimit:10;}
	.st3{fill:#3A312A;}
	.st4{fill:#87796F;}
	.st5{fill:#D5DE58;}
	.st6{fill:#695B51;}
	.st7{fill:#FCE8CB;}
	.st8{fill:#F16C7A;}
	.st9{fill:#8AC6DD;}
	.st10{fill:#DECAAD;}
	.st11{fill:#D6DF58;}
	.st12{fill-rule:evenodd;clip-rule:evenodd;fill:#FCE8CB;}
	.st13{fill:#F5978A;}
	.st14{fill:#D7E057;}
	.st15{fill-rule:evenodd;clip-rule:evenodd;fill:#87796F;}
	.st16{fill:#6CA8BF;}
	.st17{fill:#B9C239;}
	.st18{fill:#D34E5C;}
	.st19{fill:#FAE6CA;}
	.st20{fill:#F8E4C8;}
	.st21{fill:#8AC5DC;}
	.st22{fill:#EF6D7A;}
	.st23{fill:#EB6E7A;}
	.st24{fill:#89C4DB;}
	.st25{fill-rule:evenodd;clip-rule:evenodd;fill:#F16C7A;}
	.st26{fill:#F7E3C7;}
	.st27{fill:#F6E2C6;}
	.st28{fill:#ED6E7A;}
	.st29{fill:#8AC3DA;}
	.st30{fill:#D5DC57;}
	.st31{fill-rule:evenodd;clip-rule:evenodd;fill:#D7E057;}
	.st32{fill-rule:evenodd;clip-rule:evenodd;fill:#F8E4C8;}
	.st33{fill:#D4DB56;}
	.st34{fill:#F59689;}
	.st35{fill:#DDC9AC;}
	.st36{fill:#D24E5C;}
	.st37{fill:#6A5C52;}
	.st38{fill:#6CA6BE;}
	.st39{fill:#B8C136;}
	.st40{fill-rule:evenodd;clip-rule:evenodd;fill:#FAE6CA;}
</style>
<g id="Layer_2" class="st0">
	<g class="st1">
		<g>
			<line class="st2" x1="0" y1="4.829" x2="256" y2="4.829"/>
			<line class="st2" x1="0" y1="16.56" x2="256" y2="16.56"/>
			<line class="st2" x1="0" y1="28.29" x2="256" y2="28.29"/>
			<line class="st2" x1="0" y1="40.021" x2="256" y2="40.021"/>
			<line class="st2" x1="0" y1="51.751" x2="256" y2="51.751"/>
			<line class="st2" x1="0" y1="63.482" x2="256" y2="63.482"/>
			<line class="st2" x1="0" y1="75.213" x2="256" y2="75.213"/>
			<line class="st2" x1="0" y1="86.943" x2="256" y2="86.943"/>
			<line class="st2" x1="0" y1="98.674" x2="256" y2="98.674"/>
			<line class="st2" x1="0" y1="110.404" x2="256" y2="110.404"/>
			<line class="st2" x1="0" y1="122.135" x2="256" y2="122.135"/>
			<line class="st2" x1="0" y1="133.865" x2="256" y2="133.865"/>
			<line class="st2" x1="0" y1="145.596" x2="256" y2="145.596"/>
			<line class="st2" x1="0" y1="157.326" x2="256" y2="157.326"/>
			<line class="st2" x1="0" y1="169.057" x2="256" y2="169.057"/>
			<line class="st2" x1="0" y1="180.788" x2="256" y2="180.788"/>
			<line class="st2" x1="0" y1="192.518" x2="256" y2="192.518"/>
			<line class="st2" x1="0" y1="204.249" x2="256" y2="204.249"/>
			<line class="st2" x1="0" y1="215.979" x2="256" y2="215.979"/>
			<line class="st2" x1="0" y1="227.71" x2="256" y2="227.71"/>
			<line class="st2" x1="0" y1="239.44" x2="256" y2="239.44"/>
			<line class="st2" x1="0" y1="251.171" x2="256" y2="251.171"/>
		</g>
		<g>
			<line class="st2" x1="251.171" y1="0" x2="251.171" y2="256"/>
			<line class="st2" x1="239.44" y1="0" x2="239.44" y2="256"/>
			<line class="st2" x1="227.71" y1="0" x2="227.71" y2="256"/>
			<line class="st2" x1="215.979" y1="0" x2="215.979" y2="256"/>
			<line class="st2" x1="204.249" y1="0" x2="204.249" y2="256"/>
			<line class="st2" x1="192.518" y1="0" x2="192.518" y2="256"/>
			<line class="st2" x1="180.788" y1="0" x2="180.788" y2="256"/>
			<line class="st2" x1="169.057" y1="0" x2="169.057" y2="256"/>
			<line class="st2" x1="157.326" y1="0" x2="157.326" y2="256"/>
			<line class="st2" x1="145.596" y1="0" x2="145.596" y2="256"/>
			<line class="st2" x1="133.865" y1="0" x2="133.865" y2="256"/>
			<line class="st2" x1="122.135" y1="0" x2="122.135" y2="256"/>
			<line class="st2" x1="110.404" y1="0" x2="110.404" y2="256"/>
			<line class="st2" x1="98.674" y1="0" x2="98.674" y2="256"/>
			<line class="st2" x1="86.943" y1="0" x2="86.943" y2="256"/>
			<line class="st2" x1="75.213" y1="0" x2="75.213" y2="256"/>
			<line class="st2" x1="63.482" y1="0" x2="63.482" y2="256"/>
			<line class="st2" x1="51.751" y1="0" x2="51.751" y2="256"/>
			<line class="st2" x1="40.021" y1="0" x2="40.021" y2="256"/>
			<line class="st2" x1="28.29" y1="0" x2="28.29" y2="256"/>
			<line class="st2" x1="16.56" y1="0" x2="16.56" y2="256"/>
			<line class="st2" x1="4.829" y1="0" x2="4.829" y2="256"/>
		</g>
	</g>
</g>
<g id="Layer_1">
	<g>
		<path class="st5" d="M47.244,26.459c0,0,3.408,12.659,13.222,13.246c0,0-13.1,4.525-13.321,14.202c0,0-2.578-13.572-12.925-14.059
			C34.22,39.849,46.271,38.023,47.244,26.459z"/>
		<path class="st3" d="M47.145,55.407c-0.713,0-1.335-0.506-1.473-1.217c-0.024-0.125-2.494-12.418-11.523-12.844
			c-0.771-0.036-1.388-0.65-1.428-1.421c-0.04-0.77,0.511-1.444,1.273-1.561c0.441-0.068,10.895-1.816,11.754-12.031
			c0.062-0.726,0.635-1.301,1.359-1.367c0.742-0.062,1.394,0.399,1.584,1.102c0.031,0.116,3.259,11.626,11.863,12.141
			c0.714,0.042,1.297,0.583,1.396,1.292c0.098,0.708-0.318,1.388-0.994,1.622c-0.121,0.042-12.118,4.311-12.312,12.819
			c-0.018,0.767-0.61,1.395-1.375,1.46C47.229,55.405,47.187,55.407,47.145,55.407z M39.403,39.678
			c3.878,1.969,6.23,5.746,7.587,8.877c2.026-4.021,5.941-6.787,8.948-8.427c-4.134-1.843-6.783-5.651-8.334-8.723
			C45.812,35.765,42.334,38.273,39.403,39.678z"/>
		<path class="st5" d="M25.546,43.44c0,0,2.411,8.954,9.352,9.369c0,0-9.266,3.201-9.422,10.045c0,0-1.824-9.6-9.142-9.944
			C16.333,52.91,24.857,51.619,25.546,43.44z"/>
		<path class="st3" d="M25.475,64.354c-0.714,0-1.337-0.507-1.473-1.22c-0.016-0.082-1.704-8.442-7.739-8.727
			c-0.77-0.036-1.388-0.65-1.428-1.421c-0.04-0.77,0.511-1.444,1.273-1.561c0.296-0.047,7.363-1.242,7.942-8.112
			c0.062-0.726,0.636-1.303,1.361-1.368c0.715-0.056,1.392,0.399,1.582,1.102l0,0c0.021,0.079,2.227,7.92,7.993,8.265
			c0.714,0.042,1.299,0.584,1.396,1.293c0.097,0.709-0.32,1.388-0.996,1.622c-0.081,0.028-8.282,2.953-8.412,8.661
			c-0.018,0.768-0.611,1.397-1.376,1.461C25.558,64.353,25.516,64.354,25.475,64.354z M20.955,52.827
			c2.107,1.333,3.523,3.395,4.447,5.28c1.377-2.232,3.515-3.872,5.365-4.973c-2.287-1.269-3.885-3.35-4.941-5.224
			C24.652,50.197,22.81,51.786,20.955,52.827z"/>
		<path class="st5" d="M25.546,16.782c0,0,2.411,8.954,9.352,9.37c0,0-9.266,3.201-9.422,10.045c0,0-1.824-9.6-9.142-9.944
			C16.333,26.253,24.857,24.962,25.546,16.782z"/>
		<path class="st3" d="M25.475,37.697c-0.714,0-1.337-0.507-1.473-1.22c-0.016-0.082-1.704-8.442-7.739-8.727
			c-0.77-0.036-1.388-0.65-1.428-1.421c-0.04-0.77,0.511-1.444,1.273-1.561c0.296-0.047,7.363-1.242,7.942-8.113
			c0.062-0.726,0.636-1.303,1.361-1.368c0.715-0.062,1.392,0.399,1.582,1.102l0,0c0.021,0.079,2.227,7.92,7.993,8.266
			c0.714,0.043,1.299,0.584,1.396,1.293c0.097,0.709-0.32,1.389-0.997,1.622c-0.08,0.028-8.281,2.952-8.411,8.661
			c-0.018,0.768-0.611,1.397-1.376,1.461C25.558,37.695,25.516,37.697,25.475,37.697z M20.955,26.17
			c2.107,1.332,3.523,3.395,4.447,5.279c1.376-2.232,3.516-3.871,5.365-4.972c-2.288-1.27-3.885-3.351-4.941-5.225
			C24.652,23.54,22.81,25.129,20.955,26.17z"/>
		<path class="st24" d="M177.77,53.73v46.76H147.8V53.73c0-3.85,3.12-6.97,6.97-6.97h16.03C174.65,46.76,177.77,49.88,177.77,53.73z
			"/>
		<path class="st3" d="M177.77,101.99H147.8c-0.828,0-1.5-0.672-1.5-1.5V53.73c0-4.67,3.8-8.47,8.47-8.47h16.03
			c4.67,0,8.47,3.8,8.47,8.47v46.76C179.27,101.318,178.598,101.99,177.77,101.99z M149.3,98.99h26.97V53.73
			c0-3.016-2.454-5.47-5.47-5.47h-16.03c-3.016,0-5.47,2.454-5.47,5.47V98.99z"/>
		<rect x="147.8" y="78.74" class="st27" width="29.97" height="21.75"/>
		<path class="st3" d="M177.77,101.99H147.8c-0.828,0-1.5-0.672-1.5-1.5V78.74c0-0.828,0.672-1.5,1.5-1.5h29.97
			c0.828,0,1.5,0.672,1.5,1.5v21.75C179.27,101.318,178.598,101.99,177.77,101.99z M149.3,98.99h26.97V80.24H149.3V98.99z"/>
		<path class="st24" d="M152.01,34.04l-6.19,24.23l-9.31,36.46l-1.47,5.76h-30.93l3.36-13.18l9.31-36.45l6.19-24.24
			c0.95-3.73,4.75-5.98,8.48-5.02l15.53,3.96C150.71,26.52,152.96,30.31,152.01,34.04z"/>
		<path class="st3" d="M135.04,101.99h-30.93c-0.463,0-0.9-0.214-1.185-0.58c-0.284-0.365-0.384-0.842-0.269-1.29l18.859-73.871
			c0.558-2.191,1.938-4.034,3.885-5.187c1.949-1.155,4.23-1.478,6.423-0.915l15.527,3.96c4.522,1.164,7.263,5.785,6.111,10.303
			c0,0.001,0,0.001,0,0.001l-16.97,66.45C136.324,101.525,135.726,101.99,135.04,101.99z M106.041,98.99h27.834l16.682-65.32
			c0.743-2.919-1.028-5.904-3.95-6.656l-15.527-3.96c-1.418-0.365-2.892-0.155-4.148,0.59c-1.257,0.744-2.147,1.933-2.508,3.347
			L106.041,98.99z M152.01,34.04h0.01H152.01z"/>
		
			<rect x="107.835" y="57.809" transform="matrix(0.2474 -0.9689 0.9689 0.2474 24.7815 177.4924)" class="st27" width="37.625" height="29.97"/>
		<path class="st3" d="M136.513,96.229c-0.123,0-0.248-0.015-0.372-0.047l-29.038-7.415c-0.803-0.205-1.287-1.021-1.082-1.824
			l9.309-36.455c0.099-0.386,0.346-0.716,0.688-0.919c0.344-0.203,0.752-0.262,1.137-0.163l29.039,7.415
			c0.386,0.099,0.716,0.346,0.919,0.688c0.203,0.343,0.262,0.751,0.163,1.137l-9.31,36.455
			C137.792,95.777,137.182,96.229,136.513,96.229z M109.298,86.231l26.132,6.673l8.567-33.549l-26.133-6.673L109.298,86.231z"/>
		<path class="st24" d="M114.87,56.25l-19.05,44.24H63.19l14.26-33.12l9.89-22.97c1.52-3.54,5.62-5.17,9.16-3.65l14.72,6.34
			C114.76,48.62,116.39,52.72,114.87,56.25z"/>
		<path class="st3" d="M95.82,101.99H63.189c-0.505,0-0.976-0.254-1.253-0.676c-0.277-0.421-0.324-0.954-0.125-1.417l24.15-56.09
			c1.843-4.29,6.836-6.282,11.13-4.435l14.722,6.34c4.29,1.854,6.278,6.848,4.435,11.131l0,0l-19.05,44.24
			C96.961,101.634,96.419,101.99,95.82,101.99z M65.469,98.99h29.364l18.659-43.333c1.191-2.767-0.096-5.992-2.867-7.19
			l-14.719-6.339c-2.774-1.191-5.999,0.095-7.189,2.864L65.469,98.99z M114.87,56.25h0.01H114.87z"/>
		<polygon class="st27" points="104.97,79.22 95.81,100.49 63.19,100.49 77.45,67.37 		"/>
		<path class="st3" d="M95.811,101.99H63.189c-0.505,0-0.976-0.254-1.253-0.676c-0.277-0.421-0.324-0.954-0.125-1.417l14.261-33.12
			c0.157-0.366,0.453-0.653,0.823-0.801c0.369-0.146,0.783-0.14,1.148,0.016l27.52,11.851c0.761,0.328,1.111,1.21,0.784,1.972
			l-9.159,21.27C96.951,101.634,96.409,101.99,95.811,101.99z M65.469,98.99h29.354l8.176-18.985L78.234,69.341L65.469,98.99z"/>
		<path class="st24" d="M217.97,23.73v76.76H188V23.73c0-3.85,3.12-6.97,6.97-6.97H211C214.85,16.76,217.97,19.88,217.97,23.73z"/>
		<path class="st3" d="M217.97,101.99H188c-0.828,0-1.5-0.672-1.5-1.5V23.73c0-4.67,3.8-8.47,8.47-8.47H211
			c4.67,0,8.47,3.8,8.47,8.47v76.76C219.47,101.318,218.798,101.99,217.97,101.99z M189.5,98.99h26.97V23.73
			c0-3.016-2.454-5.47-5.47-5.47h-16.03c-3.016,0-5.47,2.454-5.47,5.47V98.99z"/>
		<rect x="188" y="48.742" class="st27" width="29.97" height="37.625"/>
		<path class="st3" d="M217.97,87.866H188c-0.828,0-1.5-0.672-1.5-1.5V48.742c0-0.828,0.672-1.5,1.5-1.5h29.97
			c0.828,0,1.5,0.672,1.5,1.5v37.624C219.47,87.194,218.798,87.866,217.97,87.866z M189.5,84.866h26.97V50.242H189.5V84.866z"/>
		<path class="st28" d="M124.826,100.499V239.23c0,0.006,0.005,0.01,0.01,0.01h92c3.963,0,7.176-3.213,7.176-7.176v-131.57h-99.181
			C124.828,100.493,124.826,100.496,124.826,100.499z"/>
		<path class="st3" d="M216.835,240.739h-91.999c-0.828,0-1.511-0.682-1.511-1.51v-138.73c0-0.828,0.678-1.506,1.506-1.506h99.181
			c0.828,0,1.5,0.672,1.5,1.5v131.57C225.512,236.848,221.619,240.739,216.835,240.739z M126.325,237.739h90.51
			c3.13,0,5.677-2.546,5.677-5.676v-130.07h-96.187V237.739z"/>
		<path class="st28" d="M32.413,201.946v30.118c0,3.963,3.213,7.176,7.176,7.176h85.218c0.006,0,0.01-0.004,0.01-0.01V100.498
			c0-0.003-0.002-0.005-0.005-0.005H32.413v88.228V201.946z"/>
		<path class="st3" d="M124.807,240.739H39.589c-4.784,0-8.676-3.892-8.676-8.675v-30.119c0-0.828,0.672-1.5,1.5-1.5
			c0.828,0,1.5,0.672,1.5,1.5v30.119c0,3.129,2.546,5.675,5.676,5.675h83.729V101.993H33.913v86.728c0,0.828-0.672,1.5-1.5,1.5
			c-0.828,0-1.5-0.672-1.5-1.5v-88.228c0-0.828,0.672-1.5,1.5-1.5h92.399c0.828,0,1.505,0.677,1.505,1.505V239.23
			C126.317,240.058,125.635,240.739,124.807,240.739z"/>
		<path class="st28" d="M176.903,146.067h55.585c5.135,0,8.605-5.239,6.603-9.967l-15.08-35.606h-99.19l17.453,41.2
			c1.123,2.651,3.723,4.374,6.603,4.374h15.22H176.903z"/>
		<path class="st3" d="M232.488,147.567h-55.585c-0.828,0-1.5-0.672-1.5-1.5s0.672-1.5,1.5-1.5h55.585
			c1.936,0,3.658-0.926,4.728-2.539c1.068-1.613,1.249-3.562,0.494-5.344l-14.692-34.691h-95.932l16.568,39.115
			c0.891,2.101,2.941,3.459,5.223,3.459h15.22c0.828,0,1.5,0.672,1.5,1.5s-0.672,1.5-1.5,1.5h-15.22
			c-3.488,0-6.622-2.076-7.984-5.288l-17.452-41.201c-0.196-0.463-0.147-0.994,0.13-1.413c0.278-0.42,0.748-0.672,1.251-0.672h99.19
			c0.603,0,1.146,0.36,1.381,0.915l15.079,35.606c1.138,2.685,0.855,5.739-0.755,8.171
			C238.106,146.116,235.404,147.567,232.488,147.567z"/>
		<path class="st28" d="M124.821,100.493l-16.194,41.035c-1.081,2.739-3.726,4.538-6.67,4.538H24.97
			c-5.059,0-8.527-5.097-6.67-9.802l14.114-35.771H124.821z"/>
		<path class="st3" d="M101.957,147.567H24.97c-2.872,0-5.552-1.418-7.168-3.793c-1.616-2.375-1.951-5.388-0.897-8.061
			l14.113-35.771c0.227-0.572,0.779-0.949,1.396-0.949h92.408c0.496,0,0.961,0.246,1.24,0.656c0.279,0.41,0.337,0.933,0.155,1.395
			l-16.194,41.035C108.706,145.413,105.541,147.567,101.957,147.567z M33.434,101.993l-13.738,34.822
			c-0.7,1.773-0.486,3.695,0.587,5.271c1.072,1.576,2.781,2.48,4.688,2.48h76.987c2.344,0,4.414-1.409,5.274-3.59l15.386-38.984
			H33.434z"/>
		<path class="st18" d="M222.51,147.57v84.49c0,3.13-2.55,5.68-5.68,5.68h-15c3.13,0,5.68-2.55,5.68-5.68v-84.49H222.51z"/>
		<path class="st18" d="M237.22,142.03c-1.07,1.61-2.8,2.54-4.73,2.54h-15c1.93,0,3.66-0.93,4.73-2.54
			c1.06-1.61,1.24-3.56,0.49-5.35l-14.69-34.69h15l14.69,34.69C238.46,138.47,238.28,140.42,237.22,142.03z"/>
	</g>
</g>
</svg>
